<?xml version="1.0" encoding="UTF-8"?>
<svg version="1.1" xmlns="http://www.w3.org/2000/svg" width="52" height="62">
<path d="M0 0 C4.94269653 2.37981685 7.01192697 4.91936892 9 10 C9 10.66 9 11.32 9 12 C9.763125 12.0825 10.52625 12.165 11.3125 12.25 C14.65099488 13.18167299 15.21879399 14.08136009 17 17 C17.70776367 19.61865234 17.70776367 19.61865234 18.16796875 22.5859375 C18.33941406 23.67567871 18.51085938 24.76541992 18.6875 25.88818359 C18.935 27.61415771 18.935 27.61415771 19.1875 29.375 C19.35894531 30.54498535 19.53039063 31.7149707 19.70703125 32.92041016 C22.71911117 54.44423124 22.71911117 54.44423124 19.5703125 59.12548828 C15.67425051 61.96686024 12.05147188 61.57325897 7.34375 61.53125 C6.40446655 61.5350769 5.46518311 61.53890381 4.49743652 61.54284668 C2.51374234 61.54556576 0.5300123 61.53820484 -1.45361328 61.52148438 C-4.48942016 61.50007461 -7.52286046 61.52128607 -10.55859375 61.546875 C-12.48698439 61.54423172 -14.41537356 61.53910675 -16.34375 61.53125 C-17.70481873 61.54339539 -17.70481873 61.54339539 -19.09338379 61.55578613 C-25.38450845 61.46221003 -25.38450845 61.46221003 -28.54101562 59.09179688 C-32.48548299 53.4364762 -30.61401897 46.56872382 -30 40 C-29.91234375 39.05012207 -29.8246875 38.10024414 -29.734375 37.12158203 C-29.4345154 34.03569141 -29.09732007 30.95588468 -28.75 27.875 C-28.65299805 26.87960205 -28.55599609 25.8842041 -28.45605469 24.85864258 C-27.49852306 16.94147434 -27.49852306 16.94147434 -24.5234375 13.84375 C-22 12 -22 12 -19.875 11.625 C-19.25625 11.41875 -18.6375 11.2125 -18 11 C-17.28159061 9.26928647 -16.56668638 7.53675309 -15.890625 5.7890625 C-12.78552943 -0.44836631 -6.13936421 -1.07823959 0 0 Z M-11 11 C-11 11.33 -11 11.66 -11 12 C-6.71 12 -2.42 12 2 12 C1.01 10.35 0.02 8.7 -1 7 C-5.87390134 6.06669974 -7.97868417 7.16525298 -11 11 Z M-11 18 C-11 21.3 -11 24.6 -11 28 C-13.31 28 -15.62 28 -18 28 C-18 25.03 -18 22.06 -18 19 C-18.66 19 -19.32 19 -20 19 C-21.31189189 26.1177113 -22.31893201 33.24725653 -23.125 40.4375 C-23.21249512 41.20626465 -23.29999023 41.9750293 -23.39013672 42.76708984 C-24.00827367 48.37017899 -24.00827367 48.37017899 -24 54 C-21.98025267 56.01974733 -17.86915483 55.16399439 -15.09765625 55.16796875 C-13.90830727 55.17296135 -13.90830727 55.17296135 -12.69493103 55.17805481 C-11.01448142 55.18312726 -9.33402171 55.18546304 -7.65356445 55.18530273 C-5.07681741 55.18748786 -2.50049924 55.20563609 0.07617188 55.22460938 C1.7057277 55.22754345 3.33528556 55.22952815 4.96484375 55.23046875 C5.73884018 55.23765427 6.51283661 55.24483978 7.31028748 55.25224304 C11.61916183 55.39582272 11.61916183 55.39582272 15 53 C15.02966886 50.6293474 15.02966886 50.6293474 14.609375 47.90625 C14.41021484 46.359375 14.41021484 46.359375 14.20703125 44.78125 C14.05621094 43.6984375 13.90539063 42.615625 13.75 41.5 C13.54697266 39.9221875 13.54697266 39.9221875 13.33984375 38.3125 C12.47951194 31.81578878 11.37796426 25.40663903 10 19 C9.67 19 9.34 19 9 19 C9 21.97 9 24.94 9 28 C6.69 28 4.38 28 2 28 C2 24.7 2 21.4 2 18 C-2.29 18 -6.58 18 -11 18 Z " fill="#000" transform="translate(31,1)"/>
</svg>
