<?xml version="1.0" standalone="no"?>
<!DOCTYPE svg PUBLIC "-//W3C//DTD SVG 20010904//EN"
 "http://www.w3.org/TR/2001/REC-SVG-20010904/DTD/svg10.dtd">
<svg version="1.0" xmlns="http://www.w3.org/2000/svg"
 width="90.000000pt" height="90.000000pt" viewBox="0 0 90.000000 90.000000"
 preserveAspectRatio="xMidYMid meet">

<g transform="translate(0.000000,90.000000) scale(0.100000,-0.100000)"
fill="#000000" stroke="none">
<path d="M332 734 c-98 -49 -146 -134 -140 -248 2 -39 12 -87 21 -106 17 -35
179 -238 201 -252 18 -12 71 -9 88 5 22 18 150 175 183 225 39 59 47 176 18
243 -47 105 -131 159 -248 159 -56 0 -82 -5 -123 -26z m216 -65 c88 -43 126
-157 84 -250 -23 -51 -169 -232 -182 -224 -24 15 -170 209 -180 241 -55 166
117 310 278 233z"/>
<path d="M370 618 c-69 -47 -91 -144 -47 -208 37 -55 72 -75 132 -75 153 0
212 196 85 283 -24 16 -47 22 -85 22 -38 0 -61 -6 -85 -22z m123 -59 c47 -21
60 -80 27 -122 -26 -33 -63 -41 -101 -22 -55 29 -63 92 -17 135 24 22 55 25
91 9z"/>
</g>
</svg>
