<?xml version="1.0" encoding="UTF-8"?>
<svg version="1.1" xmlns="http://www.w3.org/2000/svg" width="90" height="90">
<path d="M0 0 C1.09054688 -0.03738281 2.18109375 -0.07476562 3.3046875 -0.11328125 C10.79784027 -0.19394916 16.71338955 0.89967833 22.875 5.375 C28.20825012 11.75780735 29.00970541 17.29267521 28.875 25.375 C26.235 25.375 23.595 25.375 20.875 25.375 C20.77703125 24.71113281 20.6790625 24.04726562 20.578125 23.36328125 C19.68000716 18.05974057 18.94748813 14.20067067 14.875 10.375 C10.18987055 8.81329018 5.46920489 9.19052696 0.5625 9.1875 C-0.98727539 9.16913086 -0.98727539 9.16913086 -2.56835938 9.15039062 C-10.05849528 9.09693401 -10.05849528 9.09693401 -17.125 11.375 C-19.32210787 15.76921575 -19.62466162 20.5383957 -20.125 25.375 C-22.765 25.375 -25.405 25.375 -28.125 25.375 C-28.5607868 18.51135789 -28.04936214 13.18523617 -24.125 7.375 C-16.71219934 0.12929116 -9.96100045 0.12681829 0 0 Z " fill="#000" transform="translate(45.125,47.625)"/>
<path d="M0 0 C4.03297602 2.23115776 6.53820819 4.61462458 8 9 C8.39916616 13.52900064 8.56292698 17.63712416 6.8125 21.875 C1.82328986 27.72441878 1.82328986 27.72441878 -2.55859375 28.38671875 C-8.4943591 28.62028347 -12.46281473 28.18817102 -17 24 C-20.09420122 19.13921331 -19.60802263 13.54635281 -19 8 C-17.81338338 4.79491181 -16.14632718 2.70809843 -13.19140625 0.8828125 C-8.90723294 -0.8430755 -4.5113569 -0.74446933 0 0 Z M-11 10 C-11.69579511 12.78318045 -11.6200674 15.20679917 -11 18 C-9.53711443 20.30596047 -9.53711443 20.30596047 -7 21 C-3.16425553 20.17632322 -3.16425553 20.17632322 0 18 C0.40663055 13.95652291 0.40663055 13.95652291 0 10 C-4.46413071 6.33712352 -6.53586929 6.33712352 -11 10 Z " fill="#000" transform="translate(51,17)"/>
</svg>
