<?xml version="1.0" standalone="no"?>
<!DOCTYPE svg PUBLIC "-//W3C//DTD SVG 20010904//EN"
 "http://www.w3.org/TR/2001/REC-SVG-20010904/DTD/svg10.dtd">
<svg version="1.0" xmlns="http://www.w3.org/2000/svg"
 width="90.000000pt" height="90.000000pt" viewBox="0 0 90.000000 90.000000"
 preserveAspectRatio="xMidYMid meet">

<g transform="translate(0.000000,90.000000) scale(0.100000,-0.100000)"
fill="#000000" stroke="none">
<path d="M269 734 c-44 -28 -66 -75 -94 -203 -23 -100 -27 -138 -21 -198 7
-85 20 -115 70 -161 l35 -32 191 0 c120 0 190 4 190 10 0 6 6 10 14 10 12 0
37 26 86 87 12 15 13 243 2 243 -5 0 -16 34 -25 75 -21 98 -42 140 -82 165
-29 18 -49 20 -186 20 -123 0 -159 -4 -180 -16z m335 -77 c16 -16 30 -52 45
-116 11 -51 21 -97 21 -102 0 -5 -16 -9 -35 -9 -52 0 -100 -24 -121 -59 -16
-27 -24 -31 -64 -31 -40 0 -48 4 -64 31 -21 35 -69 59 -121 59 -42 0 -41 -2
-11 117 33 134 31 133 193 133 127 0 135 -1 157 -23z m-270 -338 c46 -77 186
-77 232 0 16 28 23 31 67 31 41 0 48 -3 43 -17 -2 -10 -7 -33 -11 -50 -12 -58
-30 -63 -218 -63 -165 0 -168 0 -192 25 -14 13 -25 35 -25 49 0 13 -3 31 -6
40 -5 13 2 16 43 16 44 0 50 -3 67 -31z"/>
</g>
</svg>
