<?xml version="1.0" encoding="UTF-8"?>
<svg version="1.1" xmlns="http://www.w3.org/2000/svg" width="90" height="90">
<path d="M0 0 C2.74303956 1.05960224 4.59949697 2.25417961 7 4 C7.763125 3.34 8.52625 2.68 9.3125 2 C13.86047553 -1.0176141 18.75239662 -0.73985106 24 0 C28.18027427 1.29865138 30.6382331 3.56402451 33.4375 6.9375 C36.51340826 13.22363566 36.02894461 20.49080464 34.10546875 27.05078125 C29.32240462 37.96079158 18.86913986 48.95361363 8 54 C1.63326977 53.52762969 -2.39781031 49.02691598 -7 45 C-7.804375 44.30390625 -8.60875 43.6078125 -9.4375 42.890625 C-17.10416754 35.79377734 -22.21918331 27.89804265 -22.6875 17.25 C-22.39931791 11.52752704 -21.10229275 7.11242187 -17 3 C-11.61777852 -0.92510568 -6.44217406 -0.80739649 0 0 Z M-13 10 C-15.59546366 13.46061821 -15.47425963 16.79941466 -15 21 C-12.14484673 29.89957349 -5.79301763 35.91564293 1 42 C1.68964844 42.62003906 2.37929688 43.24007812 3.08984375 43.87890625 C4.91073185 45.17454867 4.91073185 45.17454867 6.9453125 44.9453125 C15.02281273 41.22904814 22.70882906 32.27685243 26.875 24.5 C28.44893904 19.60330076 28.86694801 15.95063303 26.75 11.1875 C24.86186126 8.82732658 23.89773058 7.82792302 21 7 C15.33637607 6.87128127 12.46612408 9.84894444 8.5390625 13.50390625 C8.03117187 13.99761719 7.52328125 14.49132812 7 15 C6.54109375 14.59007812 6.0821875 14.18015625 5.609375 13.7578125 C4.68898438 12.94957031 4.68898438 12.94957031 3.75 12.125 C3.14671875 11.59132813 2.5434375 11.05765625 1.921875 10.5078125 C-3.32625955 6.39037361 -7.44849583 5.90941798 -13 10 Z " fill="#000" transform="translate(39,18)"/>
</svg>
