<?xml version="1.0" encoding="UTF-8"?>
<svg version="1.1" xmlns="http://www.w3.org/2000/svg" width="57" height="50" fill="#000" >
<d d="M0 0 C2.73845211 1.06418909 4.60161669 2.25572123 7 4 C7.7425 3.34 8.485 2.68 9.25 2 C14.01486006 -1.17657337 19.51729885 -0.73805592 25 0 C29.8846525 2.26787438 32.73212562 5.1153475 35 10 C36.03259144 17.4810196 35.47478665 23.83205083 31 30 C24.80446674 37.99506575 16.13058837 47.34253246 6 50 C-4.73467127 46.52099908 -15.96478612 34.72317162 -21 25 C-23.0077921 18.97662369 -23.04953453 12.26053591 -20.375 6.5 C-14.15074302 -0.05184945 -8.85915685 -1.2301099 0 0 Z M-12.4375 8.875 C-15.2433676 12.69097994 -15.21143984 14.96122206 -14.62890625 19.5625 C-13.51896691 23.86437668 -10.93983353 26.76221037 -8 30 C-7.44828125 30.62003906 -6.8965625 31.24007813 -6.328125 31.87890625 C-2.35068233 36.10265844 1.95692781 39.15754113 7 42 C19.9076675 32.46591186 19.9076675 32.46591186 28 19 C28.45588212 15.04902167 28.25436812 12.3222267 26 9 C22.88668812 6.92445875 20.92779222 6.41652218 17.20703125 6.46484375 C12.8914314 7.51128124 9.99567458 10.87684991 7 14 C5.68677212 13.02180976 4.37443848 12.0424189 3.0625 11.0625 C2.33160156 10.51722656 1.60070312 9.97195312 0.84765625 9.41015625 C-1 8 -1 8 -2 7 C-7.65218612 6.37621743 -7.65218612 6.37621743 -12.4375 8.875 Z " fill="#000"   transform="translate(22,0)" stroke="#fff"/>
<path d="M0 0 C2.73845211 1.06418909 4.60161669 2.25572123 7 4 C7.7425 3.34 8.485 2.68 9.25 2 C14.01486006 -1.17657337 19.51729885 -0.73805592 25 0 C29.8846525 2.26787438 32.73212562 5.1153475 35 10 C36.03259144 17.4810196 35.47478665 23.83205083 31 30 C24.80446674 37.99506575 16.13058837 47.34253246 6 50 C-4.73467127 46.52099908 -15.96478612 34.72317162 -21 25 C-23.0077921 18.97662369 -23.04953453 12.26053591 -20.375 6.5 C-14.15074302 -0.05184945 -8.85915685 -1.2301099 0 0 Z M-12.4375 8.875 C-15.2433676 12.69097994 -15.21143984 14.96122206 -14.62890625 19.5625 C-13.51896691 23.86437668 -10.93983353 26.76221037 -8 30 C-7.44828125 30.62003906 -6.8965625 31.24007813 -6.328125 31.87890625 C-2.35068233 36.10265844 1.95692781 39.15754113 7 42 C19.9076675 32.46591186 19.9076675 32.46591186 28 19 C28.45588212 15.04902167 28.25436812 12.3222267 26 9 C22.88668812 6.92445875 20.92779222 6.41652218 17.20703125 6.46484375 C12.8914314 7.51128124 9.99567458 10.87684991 7 14 C5.68677212 13.02180976 4.37443848 12.0424189 3.0625 11.0625 C2.33160156 10.51722656 1.60070312 9.97195312 0.84765625 9.41015625 C-1 8 -1 8 -2 7 C-7.65218612 6.37621743 -7.65218612 6.37621743 -12.4375 8.875 Z " fill="#000"  transform="translate(22,0)" stroke="#fff"/>
</svg>
