<?xml version="1.0" standalone="no"?>
<!DOCTYPE svg PUBLIC "-//W3C//DTD SVG 20010904//EN"
 "http://www.w3.org/TR/2001/REC-SVG-20010904/DTD/svg10.dtd">
<svg version="1.0" xmlns="http://www.w3.org/2000/svg"
 width="100.000000pt" height="100.000000pt" viewBox="0 0 100.000000 100.000000"
 preserveAspectRatio="xMidYMid meet">

<g transform="translate(0.000000,100.000000) scale(0.100000,-0.100000)"
fill="#000000" stroke="none">
<path d="M331 646 l-145 -145 24 -26 24 -25 21 20 22 21 5 -93 c9 -173 32
-191 250 -186 l150 3 34 37 34 38 0 102 0 101 25 -23 26 -24 27 28 27 27 -147
145 c-142 140 -148 144 -189 144 -41 0 -47 -4 -188 -144z m271 -3 l78 -78 0
-122 c0 -165 2 -163 -158 -163 -166 0 -162 -4 -162 162 l0 132 73 73 c41 40
78 73 83 73 4 0 44 -35 86 -77z"/>
</g>
</svg>
