<?xml version="1.0" standalone="no"?>
<!DOCTYPE svg PUBLIC "-//W3C//DTD SVG 20010904//EN"
 "http://www.w3.org/TR/2001/REC-SVG-20010904/DTD/svg10.dtd">
<svg version="1.0" xmlns="http://www.w3.org/2000/svg"
 width="308.000000pt" height="56.000000pt" viewBox="0 0 308.000000 56.000000"
 preserveAspectRatio="xMidYMid meet" fill="currentColor">

<g transform="translate(0.000000,56.000000) scale(0.100000,-0.100000)"
fill="#000000" stroke="none">
<path d="M407 533 c-4 -3 -7 -62 -7 -130 l0 -123 35 0 35 0 0 130 0 130 -28 0
c-16 0 -32 -3 -35 -7z" fill="currentColor"/>
<path d="M1092 508 l3 -33 188 -3 187 -2 0 35 0 35 -191 0 -190 0 3 -32z" fill="currentColor"/>
<path d="M1980 275 l0 -266 33 3 32 3 0 260 0 260 -32 3 -33 3 0 -266z" fill="currentColor"/>
<path d="M2470 275 l0 -265 35 0 35 0 0 265 0 265 -35 0 -35 0 0 -265z" fill="currentColor"/>
<path d="M300 489 c0 -32 -4 -42 -20 -46 -15 -4 -20 -14 -20 -39 0 -27 4 -34
20 -34 17 0 20 -7 20 -45 0 -45 0 -45 35 -45 l35 0 0 125 0 125 -35 0 c-34 0
-35 -1 -35 -41z" fill="currentColor"/>
<path d="M1870 425 c0 -97 -1 -105 -19 -105 -17 0 -18 4 -11 32 16 55 -12 128
-60 153 -37 19 -97 19 -143 0 -45 -19 -49 -26 -29 -53 17 -21 18 -21 63 -5 44
16 48 16 73 0 20 -14 26 -25 26 -55 0 -54 -13 -62 -101 -62 l-77 0 0 -82 c0
-95 13 -130 60 -154 38 -20 128 -15 176 10 27 14 32 22 32 51 l0 35 -38 -19
c-113 -58 -193 -19 -150 74 9 21 18 25 52 25 23 0 53 7 69 14 26 14 27 14 27
-9 0 -17 6 -25 23 -27 21 -3 22 -8 25 -106 l3 -102 34 0 35 0 0 245 0 245 -35
0 -35 0 0 -105z" fill="currentColor"/>
<path d="M30 490 l0 -30 120 0 120 0 0 30 0 30 -120 0 -120 0 0 -30z" fill="currentColor"/>
<path d="M570 490 l0 -30 195 0 195 0 0 30 0 30 -195 0 -195 0 0 -30z" fill="currentColor"/>
<path d="M2210 513 c-37 -14 -70 -58 -81 -108 -16 -71 -8 -221 14 -262 48 -92
179 -94 231 -4 14 24 20 59 24 130 5 112 -7 169 -47 213 -22 25 -36 31 -77 34
-27 2 -56 1 -64 -3z m81 -63 c33 0 52 -177 28 -262 -18 -67 -100 -67 -118 0
-14 49 -14 181 0 221 12 33 43 54 67 45 8 -2 18 -4 23 -4z" fill="currentColor"/>
<path d="M2850 490 c0 -24 -4 -30 -22 -30 -49 0 -104 -24 -140 -60 -31 -31
-38 -45 -38 -77 0 -76 58 -115 137 -94 49 13 89 54 112 116 l18 48 27 -26 c31
-31 33 -68 7 -120 l-19 -37 43 0 44 0 11 57 c11 50 10 62 -6 102 -15 36 -28
50 -61 66 -37 17 -42 24 -43 53 0 30 -2 32 -35 32 -32 0 -35 -2 -35 -30z m-14
-116 c-3 -9 -6 -19 -6 -23 0 -19 -51 -61 -74 -61 -30 0 -40 13 -32 45 7 29 49
54 90 55 22 0 27 -4 22 -16z" fill="currentColor"/>
<path d="M1170 425 c0 -34 -1 -35 -40 -35 -39 0 -40 -1 -40 -36 l0 -37 153 7
c83 4 171 9 195 13 39 5 42 7 42 37 0 31 -1 31 -43 28 -44 -4 -44 -4 -39 27 4
29 3 31 -30 31 -30 0 -35 -4 -43 -32 -9 -29 -15 -33 -47 -36 -37 -3 -38 -3
-38 32 0 34 -2 36 -35 36 -33 0 -35 -2 -35 -35z" fill="currentColor"/>
<path d="M60 390 c0 -33 -3 -40 -20 -40 -16 0 -20 -7 -20 -37 l0 -36 114 6
c63 4 121 10 130 13 10 4 16 18 16 35 0 24 -4 29 -23 29 -20 0 -23 4 -19 35 4
34 3 35 -32 35 -31 0 -36 -3 -36 -24 0 -35 -10 -56 -26 -56 -10 0 -14 12 -14
40 0 39 -1 40 -35 40 -34 0 -35 -1 -35 -40z" fill="currentColor"/>
<path d="M570 370 c0 -16 4 -30 8 -30 5 0 12 -19 18 -42 17 -77 104 -109 251
-93 97 10 113 18 113 56 0 28 -2 31 -22 24 -35 -11 -193 -18 -232 -11 -35 7
-50 25 -40 51 5 12 30 15 140 15 l134 0 0 30 0 30 -185 0 -185 0 0 -30z" fill="currentColor"/>
<path d="M1040 275 l0 -25 245 0 245 0 0 25 0 25 -245 0 -245 0 0 -25z" fill="currentColor"/>
<path d="M178 251 c-57 -8 -62 -13 -54 -44 6 -25 6 -25 115 -19 111 5 161 -1
161 -18 0 -6 -57 -10 -145 -10 l-145 0 0 -35 c0 -19 4 -35 9 -35 5 0 11 -13
14 -28 10 -51 54 -65 192 -59 66 2 137 10 158 16 32 10 37 15 31 34 -10 35
-16 36 -82 21 -73 -17 -223 -15 -229 2 -3 8 29 13 104 16 72 2 116 9 131 18
45 29 41 100 -8 125 -34 18 -182 27 -252 16z" fill="currentColor"/>
<path d="M1132 223 c-32 -4 -33 -6 -26 -36 3 -18 7 -32 8 -33 0 -1 38 3 82 9
86 10 214 2 214 -14 0 -5 -69 -9 -160 -9 l-160 0 0 -30 c0 -16 5 -30 10 -30 6
0 10 -7 10 -15 0 -9 11 -27 25 -40 23 -24 29 -25 159 -25 74 0 158 5 186 11
45 10 50 13 44 32 -11 36 -20 39 -80 26 -80 -17 -239 -18 -255 -2 -10 11 12
13 113 13 112 0 128 2 152 21 36 28 33 73 -7 103 -25 19 -43 21 -155 22 -70 1
-142 0 -160 -3z" fill="currentColor"/>
<path d="M530 80 l0 -30 240 0 240 0 0 30 0 30 -240 0 -240 0 0 -30z" fill="currentColor"/>
<path d="M2600 80 l0 -30 240 0 240 0 0 30 0 30 -240 0 -240 0 0 -30z" fill="currentColor"/>
</g>
</svg>
