<?xml version="1.0" encoding="UTF-8"?>
<svg version="1.1" xmlns="http://www.w3.org/2000/svg" width="72" height="72">
<path d="M0 0 C5.60823454 3.39636618 10.11403906 8.66649153 13.125 14.4375 C14.43608146 22.63175914 13.82857415 28.9540114 10.625 36.5625 C10.19020978 40.67204675 10.19020978 40.67204675 13.03125 43.359375 C14.05251087 44.35410961 15.0842197 45.33820689 16.125 46.3125 C16.64964844 46.81910156 17.17429688 47.32570312 17.71484375 47.84765625 C19.00941363 49.09515087 20.3160776 50.33007307 21.625 51.5625 C20.08626823 55.28110179 19.14988612 55.91883541 15.625 58.5625 C11.335 54.2725 7.045 49.9825 2.625 45.5625 C1.14 46.0575 -0.345 46.5525 -1.875 47.0625 C-10.85073798 49.69723207 -16.99699338 48.84990272 -25.375 44.5625 C-31.57286253 40.84113382 -34.16784916 35.18395252 -36.375 28.5625 C-37.18887298 21.29101188 -36.22537744 14.85008443 -32.375 8.5625 C-24.01309189 -0.76664375 -12.26452355 -5.33982238 0 0 Z M-24.6875 12.75 C-27.32022539 17.13787566 -28.88484172 21.59373413 -28 26.74609375 C-26.25126979 32.00222036 -23.34056029 35.7931321 -18.515625 38.671875 C-14.06865415 40.52207455 -8.85571873 40.38784309 -4.30859375 38.875 C0.02118967 36.63061982 2.50232371 33.88949398 4.625 29.5625 C5.98987486 24.78543798 6.12463891 20.88544403 4.0625 16.3125 C1.34507725 11.58531667 -2.12898202 8.31117266 -7.375 6.5625 C-14.964691 5.93002575 -19.03715216 7.40507637 -24.6875 12.75 Z "  transform="translate(42.375,7.4375)"/>
</svg>
